<svg width="445" height="748" viewBox="0 0 445 748" fill="none" xmlns="http://www.w3.org/2000/svg">
<path d="M254.068 737.476C311.119 611.985 374.615 302.404 190.752 38.6902C183.786 28.3053 176.976 19.097 170.493 11.1348C177.557 20.257 184.307 29.4454 190.752 38.6902C267.106 152.52 362.142 407.693 249.555 712.196C244.205 731.127 237.617 762.687 254.068 737.476Z" fill="white"/>
<path d="M385.379 215.307C403.738 258.995 324.93 378.711 144.502 409.939C128.756 413.453 114.764 415.272 103.668 415.272C117.814 414.001 131.425 412.202 144.502 409.939C229.325 391.008 365.049 322.872 373.224 224.778C374.231 212.687 365.797 198.471 330.302 206.779C294.278 218.526 313.585 210.275 332.38 204.01C363.706 193.568 378.331 202.777 385.379 215.307Z" fill="white"/>
</svg>
