<svg width="24" height="24" viewBox="0 0 24 24" fill="none" xmlns="http://www.w3.org/2000/svg">
<path d="M18 2.4H22.8C23.1183 2.4 23.4235 2.52643 23.6485 2.75147C23.8736 2.97652 24 3.28174 24 3.6V22.8C24 23.1183 23.8736 23.4235 23.6485 23.6485C23.4235 23.8736 23.1183 24 22.8 24H1.2C0.88174 24 0.576515 23.8736 0.351472 23.6485C0.126428 23.4235 0 23.1183 0 22.8V3.6C0 3.28174 0.126428 2.97652 0.351472 2.75147C0.576515 2.52643 0.88174 2.4 1.2 2.4H6V0H8.4V2.4H15.6V0H18V2.4ZM2.4 9.6V21.6H21.6V9.6H2.4ZM4.8 12H7.2V14.4H4.8V12ZM10.8 12H13.2V14.4H10.8V12ZM16.8 12H19.2V14.4H16.8V12Z" fill="white"/>
</svg>
