<svg width="24" height="22" viewBox="0 0 24 22" fill="none" xmlns="http://www.w3.org/2000/svg">
<path d="M9.3936 2.44444L6.9936 4.88889H2.4V19.5556H21.6V4.88889H17.0064L14.6064 2.44444H9.3936ZM8.4 0H15.6L18 2.44444H22.8C23.1183 2.44444 23.4235 2.57321 23.6485 2.80243C23.8736 3.03164 24 3.34251 24 3.66667V20.7778C24 21.1019 23.8736 21.4128 23.6485 21.642C23.4235 21.8712 23.1183 22 22.8 22H1.2C0.88174 22 0.576515 21.8712 0.351472 21.642C0.126428 21.4128 0 21.1019 0 20.7778V3.66667C0 3.34251 0.126428 3.03164 0.351472 2.80243C0.576515 2.57321 0.88174 2.44444 1.2 2.44444H6L8.4 0ZM12 18.3333C10.2496 18.3333 8.57084 17.6251 7.3331 16.3644C6.09536 15.1038 5.4 13.394 5.4 11.6111C5.4 9.82827 6.09536 8.11844 7.3331 6.85778C8.57084 5.59712 10.2496 4.88889 12 4.88889C13.7504 4.88889 15.4292 5.59712 16.6669 6.85778C17.9046 8.11844 18.6 9.82827 18.6 11.6111C18.6 13.394 17.9046 15.1038 16.6669 16.3644C15.4292 17.6251 13.7504 18.3333 12 18.3333ZM12 15.8889C13.1139 15.8889 14.1822 15.4382 14.9698 14.636C15.7575 13.8337 16.2 12.7456 16.2 11.6111C16.2 10.4766 15.7575 9.3885 14.9698 8.58627C14.1822 7.78403 13.1139 7.33333 12 7.33333C10.8861 7.33333 9.81781 7.78403 9.03015 8.58627C8.2425 9.3885 7.8 10.4766 7.8 11.6111C7.8 12.7456 8.2425 13.8337 9.03015 14.636C9.81781 15.4382 10.8861 15.8889 12 15.8889Z" fill="white"/>
</svg>
