<svg width="23" height="24" viewBox="0 0 23 24" fill="none" xmlns="http://www.w3.org/2000/svg">
<path d="M1.16694 17.9989C0.662545 17.1219 0.270455 16.1842 0 15.2082C0.588611 14.9072 1.08294 14.4483 1.42829 13.8823C1.77364 13.3164 1.95656 12.6654 1.9568 12.0013C1.95705 11.3373 1.77462 10.6862 1.42969 10.1199C1.08476 9.5537 0.590774 9.09444 0.0023865 8.79297C0.541753 6.8319 1.56873 5.04118 2.98656 3.58949C3.54032 3.9515 4.18288 4.15239 4.84315 4.16993C5.50341 4.18747 6.15563 4.02097 6.72762 3.68887C7.29961 3.35678 7.76907 2.87202 8.08404 2.28825C8.39901 1.70449 8.54721 1.04448 8.51224 0.381264C10.4716 -0.127899 12.5276 -0.127074 14.4866 0.383663C14.4519 1.04686 14.6004 1.70678 14.9156 2.29037C15.2308 2.87397 15.7005 3.3585 16.2726 3.69035C16.8447 4.02219 17.4969 4.18841 18.1572 4.17061C18.8174 4.15281 19.4598 3.95169 20.0134 3.58949C20.7043 4.29737 21.3176 5.10243 21.8331 6.00107C22.3497 6.89971 22.7363 7.83674 23 8.79177C22.4114 9.0928 21.9171 9.55168 21.5717 10.1177C21.2264 10.6836 21.0434 11.3346 21.0432 11.9987C21.0429 12.6627 21.2254 13.3138 21.5703 13.8801C21.9152 14.4463 22.4092 14.9056 22.9976 15.207C22.4582 17.1681 21.4313 18.9588 20.0134 20.4105C19.4597 20.0485 18.8171 19.8476 18.1569 19.8301C17.4966 19.8125 16.8444 19.979 16.2724 20.3111C15.7004 20.6432 15.2309 21.128 14.916 21.7117C14.601 22.2955 14.4528 22.9555 14.4878 23.6187C12.5284 24.1279 10.4724 24.1271 8.51344 23.6163C8.54809 22.9531 8.3996 22.2932 8.08439 21.7096C7.76917 21.126 7.29953 20.6415 6.72743 20.3097C6.15533 19.9778 5.50307 19.8116 4.84285 19.8294C4.18262 19.8472 3.54016 20.0483 2.98656 20.4105C2.28137 19.687 1.66999 18.8767 1.16694 17.9989ZM7.92042 18.2341C9.19192 18.9715 10.1479 20.155 10.6051 21.5575C11.2005 21.6139 11.7983 21.6151 12.3937 21.5587C12.8512 20.156 13.8076 18.9725 15.0796 18.2353C16.3506 17.4958 17.8484 17.2544 19.2856 17.5574C19.6316 17.0679 19.9299 16.546 20.1781 16.0001C19.199 14.9004 18.6581 13.476 18.6592 12C18.6592 10.4883 19.22 9.07612 20.1781 7.99991C19.9282 7.45419 19.6286 6.93286 19.2832 6.44259C17.8469 6.7453 16.3501 6.50435 15.0796 5.76591C13.8081 5.02848 12.8521 3.84503 12.3949 2.4425C11.7995 2.38611 11.2017 2.38491 10.6063 2.4413C10.1488 3.84402 9.19237 5.02751 7.92042 5.76471C6.64941 6.50415 5.15159 6.74556 3.71441 6.44259C3.36906 6.93244 3.07024 7.45384 2.8219 7.99991C3.801 9.09959 4.34189 10.524 4.34084 12C4.34084 13.5117 3.78004 14.9239 2.8219 16.0001C3.07184 16.5458 3.37142 17.0671 3.7168 17.5574C5.15307 17.2547 6.64992 17.4957 7.92042 18.2341ZM11.5 15.5994C10.5506 15.5994 9.64015 15.2201 8.96885 14.5451C8.29755 13.8701 7.92042 12.9546 7.92042 12C7.92042 11.0454 8.29755 10.1299 8.96885 9.45487C9.64015 8.77986 10.5506 8.40064 11.5 8.40064C12.4494 8.40064 13.3598 8.77986 14.0311 9.45487C14.7024 10.1299 15.0796 11.0454 15.0796 12C15.0796 12.9546 14.7024 13.8701 14.0311 14.5451C13.3598 15.2201 12.4494 15.5994 11.5 15.5994ZM11.5 13.1998C11.8165 13.1998 12.1199 13.0734 12.3437 12.8484C12.5675 12.6234 12.6932 12.3182 12.6932 12C12.6932 11.6818 12.5675 11.3766 12.3437 11.1516C12.1199 10.9266 11.8165 10.8002 11.5 10.8002C11.1835 10.8002 10.8801 10.9266 10.6563 11.1516C10.4325 11.3766 10.3068 11.6818 10.3068 12C10.3068 12.3182 10.4325 12.6234 10.6563 12.8484C10.8801 13.0734 11.1835 13.1998 11.5 13.1998Z" fill="white"/>
</svg>
