<svg width="193" height="108" viewBox="0 0 193 108" fill="none" xmlns="http://www.w3.org/2000/svg">
<path d="M146.692 25.5545C147.546 24.6117 149.58 22.947 150.882 23.8307C152.508 24.9353 150.971 30.143 145.857 32.2006C147.632 32.1238 151.379 31.8146 152.163 31.1931M163.528 28.5709C165.143 27.4238 168.327 26.2038 168.14 30.501C167.5 32.5 165.567 33.4181 161.823 35.1079C162.818 35.383 165.059 36.0547 166.057 36.5403M171.617 30.938C172.233 30.7155 173.803 30.4027 175.149 30.9319C176.831 31.5935 176.764 35.6359 169.422 37.8634L173.054 40.5704M159.405 26.2524C158.246 26.1067 155.644 26.6797 154.503 30.1369C153.077 34.4585 156.461 34.2157 157.589 33.6755C159 33 163.5 27.5 159.405 26.2524Z" stroke="white" stroke-linecap="round" stroke-linejoin="round"/>
<path d="M188.5 20.0487L144.5 9.04874L134 40.0487L177.5 54.5487L178.297 52.0487M188.5 20.0487L181.5 54.5487M188.5 20.0487L178.297 52.0487M188.5 20.0487L192 52.0487L186 48.0487L181.5 54.5487M181.5 54.5487L178.297 52.0487M149.5 10.0487C150 9.04874 149.8 8.44874 149 8.04874C148 7.54874 145.5 11.0487 148 11.5487M153 11.0487C153.5 10.0487 153.3 9.44874 152.5 9.04874C151.5 8.54874 149 12.0487 151.5 12.5487M156.691 12.0964C157.191 11.0964 156.991 10.4964 156.191 10.0964C155.191 9.59641 152.691 13.0964 155.191 13.5964M160.415 13.0274C160.915 12.0274 160.715 11.4274 159.915 11.0274C158.915 10.5274 156.415 14.0274 158.915 14.5274M164 13.9237C164.5 12.9237 164.3 12.3237 163.5 11.9237C162.5 11.4237 160 14.9237 162.5 15.4237M167.5 14.7987C168 13.7987 167.8 13.1987 167 12.7987C166 12.2987 163.5 15.7987 166 16.2987M171.241 15.734C171.741 14.734 171.541 14.134 170.741 13.734C169.741 13.234 167.241 16.734 169.741 17.234M174.76 16.6136C175.26 15.6136 175.06 15.0136 174.26 14.6136C173.26 14.1136 170.76 17.6136 173.26 18.1136M178.5 17.5487C179 16.5487 178.8 15.9487 178 15.5487C177 15.0487 174.5 18.5487 177 19.0487M182 18.4237C182.5 17.4237 182.3 16.8237 181.5 16.4237C180.5 15.9237 178 19.4237 180.5 19.9237M185.5 19.2987C186 18.2987 185.8 17.6987 185 17.2987C184 16.7987 181.5 20.2987 184 20.7987" stroke="white"/>
<path d="M31.9852 16.9568C26.5497 20.7967 20.2188 16.5267 17.7329 13.9117C16.1127 12.4944 12.5727 17.813 11.0052 20.6495C7.39221 42.9603 11.3583 66.2492 13.7929 75.1048L23.5108 72.3722C24.0021 70.0727 22.1946 67.2821 22.2577 62.4866C21.4819 54.8671 20.5727 43.3719 21.8501 37.3932C24.2704 44.0657 32.6373 60.1105 38.0819 69.1283C55.0261 70.8249 73.3109 50.7924 70.0926 50.1048C66.8744 49.4172 61.4204 43.443 58.2336 40.3577C55.0469 37.2724 49.4559 20.6894 51.4283 24.9579C53.4008 29.2265 73.2271 45.2757 75.0796 42.5142C76.4903 40.4112 77.2133 41.5274 78.2942 36.4686C74.8127 34.763 51.0595 10.9333 46.4935 7.55334C41.9275 4.17335 34.4417 5.45933 34.0486 7.29892C33.6556 9.13851 38.7796 12.1568 31.9852 16.9568Z" stroke="white"/>
<path d="M107.179 52.8474C100.653 52.4873 86.086 52.5468 80.03 55.6653L80.1586 56.2263M107.179 52.8474L114.12 84.412M107.179 52.8474C109.086 51.2927 114.778 48.0953 122.285 47.7434C129.792 47.3915 133.749 49.2485 134.79 50.221L140.537 80.7492C139.611 80.4295 138.452 80.1102 137.124 79.842M114.12 84.412C107.992 81.4383 93.595 84.7436 87.1627 86.768L80.1586 56.2263M114.12 84.412C118.667 82.1474 130.049 78.8912 139.196 83.9825L137.124 79.842M114.12 84.412C121.218 78.4539 130.982 78.6016 137.124 79.842M114.12 84.412C105.964 83.1958 91.9842 87.3235 86.0138 89.5393L78.3403 57.13L80.1586 56.2263M88.0398 61.151L91.5667 76.1447C94.9763 75.754 102.519 75.0559 105.412 75.3892L102.538 60.1251C99.0758 59.7723 91.3291 59.4836 88.0398 61.151ZM114.073 58.4121C116.815 57.0225 123.998 54.8404 130.802 57.2282L132.549 66.0713C129.586 65.3843 122.223 64.6052 116.473 66.9847L114.073 58.4121Z" stroke="white" stroke-linecap="round" stroke-linejoin="round"/>
<path d="M45.6701 36.7526L44.492 35.572L42.7063 33.8153L42.1463 33.1726L42.8717 31.0089L43.5708 28.6992L41.5152 29.9131L39.4858 31.2729L37.7708 30.1326L36.0559 28.9924L36.2133 30.7396L36.3708 32.4867L35.4895 32.8488L33.1464 33.8381L31.6846 34.4653L34.0944 34.7919L36.5042 35.1184L36.9459 37.6385L37.5185 40.1395L38.8057 37.7608L39.9622 35.4012L40.2391 35.3761L43.0693 36.0851L45.6701 36.7526Z" fill="white"/>
</svg>
