<svg width="79" height="65" viewBox="0 0 79 65" fill="none" xmlns="http://www.w3.org/2000/svg">
<g style="mix-blend-mode:color-dodge" opacity="0.6">
<path d="M30.4179 25.9833C28.1299 24.0398 20.2851 20.3859 7.21045 21.3188V23.6511M30.4179 25.9833V57.7603M30.4179 25.9833C32.4881 24.4285 37.2821 21.3188 46.4344 21.3188M30.4179 57.7603C23.6191 52.6294 12.1134 52.7071 7.21045 53.3873V23.6511M30.4179 57.7603C32.9239 55.6224 41.1391 51.7548 53.9523 53.3873V32.9362M7.21045 23.6511H1V60.3841C6.22985 58.3434 19.4352 56.0111 30.4179 63.0079C35.3209 60.0926 48.1994 55.4864 60.4896 60.3841V30.3213" stroke="white" stroke-width="2"/>
<path d="M42.8723 31.9835C46.0812 26.9786 51.7893 18.2478 58.1083 14.6763C64.2048 11.2307 70.7461 9.18143 75.1416 3.9617C72.6692 9.73084 70.638 9.79302 67.1742 15.5C64.8108 19.394 62.2918 23.5794 58.1083 27.3136C52.8886 31.9728 48.671 31.1335 44.0975 32.5333M44.0975 32.5333L37.7789 38.8519L34.8812 40.9115L36.9591 37.8967C41.1145 33.7413 46.6789 28.3232 50.2077 25.4439C56.9777 19.9198 70.9137 8.33475 72.077 7.76668C61.3629 16.5578 51.2529 25.4773 50.2077 26.4232L44.0975 32.5333Z" stroke="white" stroke-width="2" stroke-linecap="round" stroke-linejoin="round"/>
</g>
</svg>
