<svg width="21" height="26" viewBox="0 0 21 26" fill="none" xmlns="http://www.w3.org/2000/svg">
<path d="M10.5 22.616L16.275 16.6927C17.417 15.5212 18.1948 14.0287 18.5098 12.4039C18.8248 10.7791 18.6631 9.09491 18.0449 7.56439C17.4268 6.03386 16.3801 4.72571 15.0371 3.80535C13.6941 2.88499 12.1152 2.39374 10.5 2.39374C8.88482 2.39374 7.30591 2.88499 5.96293 3.80535C4.61995 4.72571 3.57321 6.03386 2.95507 7.56439C2.33693 9.09491 2.17515 10.7791 2.4902 12.4039C2.80524 14.0287 3.58296 15.5212 4.725 16.6927L10.5 22.616ZM10.5 26L3.07534 18.3847C1.6069 16.8786 0.606884 14.9596 0.20175 12.8705C-0.203384 10.7815 0.00455798 8.61606 0.799282 6.64819C1.59401 4.68032 2.93982 2.99836 4.66653 1.81499C6.39324 0.63162 8.4233 0 10.5 0C12.5767 0 14.6068 0.63162 16.3335 1.81499C18.0602 2.99836 19.406 4.68032 20.2007 6.64819C20.9954 8.61606 21.2034 10.7815 20.7983 12.8705C20.3931 14.9596 19.3931 16.8786 17.9247 18.3847L10.5 26ZM10.5 13.1627C11.1188 13.1627 11.7123 12.9105 12.1499 12.4617C12.5875 12.0129 12.8333 11.4042 12.8333 10.7695C12.8333 10.1347 12.5875 9.52601 12.1499 9.07719C11.7123 8.62837 11.1188 8.37622 10.5 8.37622C9.88116 8.37622 9.28767 8.62837 8.85009 9.07719C8.4125 9.52601 8.16667 10.1347 8.16667 10.7695C8.16667 11.4042 8.4125 12.0129 8.85009 12.4617C9.28767 12.9105 9.88116 13.1627 10.5 13.1627ZM10.5 15.5559C9.26232 15.5559 8.07534 15.0516 7.20017 14.154C6.325 13.2564 5.83334 12.0389 5.83334 10.7695C5.83334 9.50001 6.325 8.28255 7.20017 7.38491C8.07534 6.48728 9.26232 5.98299 10.5 5.98299C11.7377 5.98299 12.9247 6.48728 13.7998 7.38491C14.675 8.28255 15.1667 9.50001 15.1667 10.7695C15.1667 12.0389 14.675 13.2564 13.7998 14.154C12.9247 15.0516 11.7377 15.5559 10.5 15.5559Z" fill="white"/>
</svg>
