<svg width="59" height="75" viewBox="0 0 59 75" fill="none" xmlns="http://www.w3.org/2000/svg">
<g opacity="0.5">
<path d="M5.02023 73.68C-3.13819 71.6403 0.520508 64.2154 3.02016 61.18C6.72604 56.6801 16.0198 54.68 20.0205 61.18C22.9857 65.9974 15.02 76.18 5.02023 73.68Z" fill="white"/>
<path d="M42.8276 61.5373C34.6692 59.4976 37.5159 52.0454 40.8276 49.0373C45.7725 44.5454 54.7715 42.0434 57.8279 49.0373C60.0166 54.0454 52.8274 64.0373 42.8276 61.5373Z" fill="white"/>
<path d="M16.0205 62.6801L10.7175 27.6801M53.5205 48.1801L47.2568 18.1801M10.7175 27.6801L8.52051 13.1801C17.8538 8.34676 38.0205 -0.519904 44.0205 2.6801L47.2568 18.1801M10.7175 27.6801C18.476 24.5134 36.6458 18.1801 47.2568 18.1801" stroke="white" stroke-width="3"/>
<path d="M5 67L54 2" stroke="white" stroke-width="3" stroke-linecap="round"/>
</g>
</svg>
