<svg width="23" height="24" viewBox="0 0 23 24" fill="none" xmlns="http://www.w3.org/2000/svg">
<path d="M4.7955 19.1982C5.03309 18.4958 5.4737 17.8875 6.05659 17.4572C6.63948 17.0269 7.33595 16.7959 8.05 16.7959C8.76405 16.7959 9.46052 17.0269 10.0434 17.4572C10.6263 17.8875 11.0669 18.4958 11.3045 19.1982H23V21.5976H11.3045C11.0669 22.3001 10.6263 22.9084 10.0434 23.3387C9.46052 23.7689 8.76405 24 8.05 24C7.33595 24 6.63948 23.7689 6.05659 23.3387C5.4737 22.9084 5.03309 22.3001 4.7955 21.5976H0V19.1982H4.7955ZM11.6955 10.8003C11.9331 10.0978 12.3737 9.48953 12.9566 9.05927C13.5395 8.629 14.2359 8.39794 14.95 8.39794C15.6641 8.39794 16.3605 8.629 16.9434 9.05927C17.5263 9.48953 17.9669 10.0978 18.2045 10.8003H23V13.1997H18.2045C17.9669 13.9022 17.5263 14.5105 16.9434 14.9407C16.3605 15.371 15.6641 15.6021 14.95 15.6021C14.2359 15.6021 13.5395 15.371 12.9566 14.9407C12.3737 14.5105 11.9331 13.9022 11.6955 13.1997H0V10.8003H11.6955ZM4.7955 2.40235C5.03309 1.69988 5.4737 1.09159 6.05659 0.661326C6.63948 0.231058 7.33595 0 8.05 0C8.76405 0 9.46052 0.231058 10.0434 0.661326C10.6263 1.09159 11.0669 1.69988 11.3045 2.40235H23V4.80176H11.3045C11.0669 5.50423 10.6263 6.11252 10.0434 6.54279C9.46052 6.97306 8.76405 7.20412 8.05 7.20412C7.33595 7.20412 6.63948 6.97306 6.05659 6.54279C5.4737 6.11252 5.03309 5.50423 4.7955 4.80176H0V2.40235H4.7955Z" fill="white"/>
</svg>
