<svg width="19" height="25" viewBox="0 0 19 25" fill="none" xmlns="http://www.w3.org/2000/svg">
<path d="M0 25C0 22.4741 1.00089 20.0517 2.78249 18.2656C4.56408 16.4796 6.98044 15.4762 9.5 15.4762C12.0196 15.4762 14.4359 16.4796 16.2175 18.2656C17.9991 20.0517 19 22.4741 19 25H16.625C16.625 23.1056 15.8743 21.2888 14.5381 19.9492C13.2019 18.6097 11.3897 17.8571 9.5 17.8571C7.61033 17.8571 5.79806 18.6097 4.46186 19.9492C3.12567 21.2888 2.375 23.1056 2.375 25H0ZM9.5 14.2857C5.56344 14.2857 2.375 11.0893 2.375 7.14286C2.375 3.19643 5.56344 0 9.5 0C13.4366 0 16.625 3.19643 16.625 7.14286C16.625 11.0893 13.4366 14.2857 9.5 14.2857ZM9.5 11.9048C12.1244 11.9048 14.25 9.77381 14.25 7.14286C14.25 4.5119 12.1244 2.38095 9.5 2.38095C6.87563 2.38095 4.75 4.5119 4.75 7.14286C4.75 9.77381 6.87563 11.9048 9.5 11.9048Z" fill="white"/>
</svg>
