<svg width="59" height="64" viewBox="0 0 59 64" fill="none" xmlns="http://www.w3.org/2000/svg">
<g style="mix-blend-mode:color-dodge" opacity="0.6">
<path d="M47.1053 5.47321C42.9861 5.47321 35.1465 3.72708 29.8876 2.67938C27.281 2.16006 20.9021 4.89117 19.9525 5.47321M19.9525 5.47321L35.7796 10.7116C37.0457 11.0609 37.299 12.6673 35.7796 13.5055C35.4574 13.6832 34.9075 13.9011 34.2102 14.1456M19.9525 5.47321L17.8428 4.77475L11.3538 23.9823M51.9232 18.0454C48.1247 22.5854 43.6858 21.8869 39.5781 21.1885C37.9821 20.9171 36.0015 20.1408 34.2553 20.49C33.2077 20.6996 33.1131 20.6837 32.5092 20.8392M7.71531 30.6176H9.11213M31.4612 30.6176H29.3659M9.11213 30.6176H29.3659M9.11213 30.6176L11.3538 23.9823M29.3659 30.6176L31.4612 23.9823M35.4672 10.6082L34.2102 14.1456M1.21094 36.2053H39.2736M1.21094 36.2053L1.21094 62.3974H39.2736V36.2053M1.21094 36.2053L9.11213 23.9823H11.3538M39.2736 36.2053L31.4612 23.9823M31.4612 23.9823L32.5092 20.8392M34.2102 14.1456C30.7971 15.3423 26.2231 16.2993 23.4293 18.0454C20.6354 19.7916 21.5352 21.8869 22.8014 22.5854C23.9537 23.2211 25.0674 22.0701 32.5092 20.8392M46.2254 2.67938L52.8728 20.49L57.3044 18.7439L50.9736 1.28247L46.2254 2.67938Z" stroke="white" stroke-width="2" stroke-linecap="round" stroke-linejoin="round"/>
<path d="M15.7881 42.4915C18.4499 42.4915 19.485 44.779 19.6699 45.9228C19.8547 44.779 21.3335 42.4915 23.5517 42.4915C25.5068 42.4915 27.4841 44.4103 27.4841 47.037C27.4841 49.6638 25.2153 53.3574 19.6699 55.645C14.1048 52.7883 11.9062 49.3542 11.9062 45.9228C11.9062 44.4481 13.0153 42.4915 15.7881 42.4915Z" fill="white"/>
</g>
</svg>
